<svg width="150" height="150" viewBox="0 0 150 150" fill="none" xmlns="http://www.w3.org/2000/svg">
<line x1="23.5376" y1="122.513" x2="123.538" y2="23.5127" stroke="#860002" stroke-width="7"/>
<path d="M34.375 75.275V77.6H63.625V75.275C63.625 73.925 63.5 72.675 63.25 71.525C63.05 70.375 62.775 69.3 62.425 68.3L57.25 56.075C56.7 54.775 56.125 53.7 55.525 52.85C54.925 51.95 53.925 51.5 52.525 51.5H45.175C43.675 51.5 42.625 51.95 42.025 52.85C41.425 53.7 40.875 54.75 40.375 56L35.575 68.3C35.225 69.3 34.925 70.375 34.675 71.525C34.475 72.675 34.375 73.925 34.375 75.275ZM46.375 59.75C46.575 59.3 46.775 58.975 46.975 58.775C47.225 58.575 47.5 58.475 47.8 58.475H49.675C49.975 58.475 50.225 58.575 50.425 58.775C50.675 58.975 50.9 59.3 51.1 59.75L54.625 71.15H42.85L46.375 59.75ZM63.625 91.25V78.35H34.375V91.25H33.625V75.275C33.625 73.875 33.725 72.6 33.925 71.45C34.175 70.25 34.5 69.1 34.9 68L39.7 55.7C40.25 54.3 40.875 53.125 41.575 52.175C42.275 51.225 43.475 50.75 45.175 50.75H52.525C54.175 50.75 55.325 51.225 55.975 52.175C56.675 53.125 57.325 54.325 57.925 55.775L63.1 68C63.5 69.1 63.8 70.25 64 71.45C64.25 72.6 64.375 73.875 64.375 75.275V91.25H63.625ZM42.1 95.3V84.8H55.375V95.3C55.375 96.25 55.6 96.95 56.05 97.4C56.55 97.8 57.3 98 58.3 98H69.625C70.575 98 71.25 97.8 71.65 97.4C72.1 96.95 72.325 96.25 72.325 95.3V75.5C72.325 74 72.075 72.275 71.575 70.325C71.125 68.375 70.4 66.1 69.4 63.5L62.875 46.475C62.575 45.625 62.1 45 61.45 44.6C60.85 44.2 60.075 44 59.125 44H38.95C37.95 44 37.125 44.2 36.475 44.6C35.875 45 35.425 45.625 35.125 46.475L28.6 63.5C27.6 66.1 26.85 68.375 26.35 70.325C25.9 72.275 25.675 74 25.675 75.5V95.3C25.675 96.25 25.875 96.95 26.275 97.4C26.725 97.8 27.425 98 28.375 98H39.4C40.35 98 41.025 97.8 41.425 97.4C41.875 96.95 42.1 96.25 42.1 95.3ZM32.05 106.175C31.85 106.375 31.525 106.55 31.075 106.7C30.675 106.85 30.225 106.925 29.725 106.925H18.7C17.5 106.925 16.625 106.65 16.075 106.1C15.525 105.55 15.25 104.675 15.25 103.475V83.675C15.25 82.125 15.475 80.375 15.925 78.425C16.425 76.425 17.2 74.075 18.25 71.375L24.7 54.425C24.85 53.975 25.025 53.6 25.225 53.3C25.475 52.95 25.725 52.65 25.975 52.4L26.05 52.325L35.65 44.3C36.05 43.95 36.525 43.7 37.075 43.55C37.625 43.35 38.25 43.25 38.95 43.25H59.125C60.275 43.25 61.2 43.5 61.9 44C62.65 44.45 63.2 45.175 63.55 46.175L70.075 63.2C71.125 65.9 71.875 68.25 72.325 70.25C72.825 72.2 73.075 73.95 73.075 75.5V95.3C73.075 95.95 72.975 96.5 72.775 96.95C72.625 97.4 72.375 97.775 72.025 98.075L62.275 106.175C62.075 106.375 61.75 106.55 61.3 106.7C60.9 106.85 60.45 106.925 59.95 106.925H48.625C47.375 106.925 46.45 106.625 45.85 106.025C45.25 105.475 44.95 104.625 44.95 103.475V93.725H42.85V95.3C42.85 95.95 42.75 96.5 42.55 96.95C42.4 97.4 42.15 97.775 41.8 98.075L32.05 106.175ZM121.756 102.95C120.206 104.25 118.231 105.225 115.831 105.875C113.431 106.575 110.606 106.925 107.356 106.925H82.0809C80.8809 106.925 80.0059 106.65 79.4559 106.1C78.9059 105.55 78.6309 104.675 78.6309 103.475V54.875C78.6309 54.225 78.7059 53.675 78.8559 53.225C79.0559 52.775 79.3309 52.4 79.6809 52.1L89.3559 43.925C89.6059 43.725 89.9309 43.575 90.3309 43.475C90.7809 43.325 91.2559 43.25 91.7559 43.25H117.031C123.581 43.25 128.406 44.575 131.506 47.225C134.656 49.875 136.231 53.9 136.231 59.3V82.7C136.231 85.4 135.831 87.775 135.031 89.825C134.231 91.825 133.056 93.5 131.506 94.85L121.756 102.95ZM117.031 98C123.281 98 127.906 96.75 130.906 94.25C133.956 91.75 135.481 87.9 135.481 82.7V59.3C135.481 54.1 133.956 50.25 130.906 47.75C127.906 45.25 123.281 44 117.031 44H91.7559C90.8059 44 90.1059 44.225 89.6559 44.675C89.2559 45.075 89.0559 45.75 89.0559 46.7V95.3C89.0559 96.25 89.2559 96.95 89.6559 97.4C90.1059 97.8 90.8059 98 91.7559 98H117.031ZM97.2309 91.25V50.75H115.381C117.931 50.75 119.981 51.025 121.531 51.575C123.131 52.125 124.356 52.875 125.206 53.825C126.056 54.725 126.631 55.825 126.931 57.125C127.231 58.375 127.381 59.725 127.381 61.175V81.05C127.381 82.5 127.231 83.85 126.931 85.1C126.681 86.35 126.131 87.425 125.281 88.325C124.431 89.225 123.206 89.95 121.606 90.5C120.006 91 117.931 91.25 115.381 91.25H97.2309ZM115.381 51.5H97.9809V90.5H115.381C117.781 90.5 119.706 90.275 121.156 89.825C122.656 89.325 123.806 88.675 124.606 87.875C125.406 87.025 125.931 86.025 126.181 84.875C126.481 83.675 126.631 82.4 126.631 81.05V61.175C126.631 59.825 126.481 58.55 126.181 57.35C125.881 56.15 125.331 55.125 124.531 54.275C123.731 53.425 122.581 52.75 121.081 52.25C119.631 51.75 117.731 51.5 115.381 51.5ZM106.081 58.325H115.006C116.206 58.325 117.081 58.625 117.631 59.225C118.231 59.775 118.531 60.675 118.531 61.925V80.15C118.531 81.4 118.231 82.325 117.631 82.925C117.081 83.525 116.206 83.825 115.006 83.825H106.081V58.325ZM108.106 70.1C108.106 69.45 108.006 68.9 107.806 68.45C107.606 68 107.281 67.675 106.831 67.475V83.075H108.106V70.1Z" fill="black"/>
<circle opacity="1" cx="75" cy="75" r="71.5" stroke="#860002" stroke-width="7"/>
</svg>
